<mxfile host="app.diagrams.net" modified="2023-10-23T20:31:37.265Z" agent="Mozilla/5.0 (Windows NT 10.0; Win64; x64; rv:109.0) Gecko/20100101 Firefox/118.0" etag="rWuWzyRcde3i0v5-57eE" version="22.0.6" type="github">
  <diagram name="Page-1" id="e7e014a7-5840-1c2e-5031-d8a46d1fe8dd">
    <mxGraphModel dx="1500" dy="757" grid="1" gridSize="10" guides="1" tooltips="1" connect="1" arrows="1" fold="1" page="1" pageScale="1" pageWidth="1169" pageHeight="826" background="none" math="0" shadow="0">
      <root>
        <mxCell id="0" />
        <mxCell id="1" parent="0" />
        <mxCell id="2" value="Website - End User Interaction" style="swimlane;whiteSpace=wrap;movable=1;resizable=1;rotatable=1;deletable=1;editable=1;locked=0;connectable=1;" parent="1" vertex="1">
          <mxGeometry x="290" y="50" width="957" height="709" as="geometry" />
        </mxCell>
        <mxCell id="wyG0Mp5H0PBrzHiHYPUD-58" style="edgeStyle=orthogonalEdgeStyle;rounded=0;orthogonalLoop=1;jettySize=auto;html=1;exitX=0.5;exitY=1;exitDx=0;exitDy=0;entryX=0.5;entryY=0;entryDx=0;entryDy=0;" parent="2" source="wyG0Mp5H0PBrzHiHYPUD-42" target="wyG0Mp5H0PBrzHiHYPUD-43" edge="1">
          <mxGeometry relative="1" as="geometry" />
        </mxCell>
        <mxCell id="wyG0Mp5H0PBrzHiHYPUD-63" style="edgeStyle=orthogonalEdgeStyle;rounded=0;orthogonalLoop=1;jettySize=auto;html=1;exitX=1;exitY=0.5;exitDx=0;exitDy=0;entryX=0;entryY=0.5;entryDx=0;entryDy=0;" parent="2" source="wyG0Mp5H0PBrzHiHYPUD-42" target="wyG0Mp5H0PBrzHiHYPUD-62" edge="1">
          <mxGeometry relative="1" as="geometry" />
        </mxCell>
        <mxCell id="wyG0Mp5H0PBrzHiHYPUD-42" value="Login / Sign up" style="ellipse;whiteSpace=wrap;html=1;fillColor=#d80073;fontColor=#ffffff;strokeColor=#A50040;movable=1;resizable=1;rotatable=1;deletable=1;editable=1;locked=0;connectable=1;" parent="2" vertex="1">
          <mxGeometry x="40" y="80" width="170" height="80" as="geometry" />
        </mxCell>
        <mxCell id="wyG0Mp5H0PBrzHiHYPUD-48" style="edgeStyle=orthogonalEdgeStyle;rounded=0;orthogonalLoop=1;jettySize=auto;html=1;exitX=0.5;exitY=0;exitDx=0;exitDy=0;entryX=0.5;entryY=1;entryDx=0;entryDy=0;" parent="2" source="wyG0Mp5H0PBrzHiHYPUD-43" target="wyG0Mp5H0PBrzHiHYPUD-42" edge="1">
          <mxGeometry relative="1" as="geometry" />
        </mxCell>
        <mxCell id="wyG0Mp5H0PBrzHiHYPUD-57" value="" style="edgeStyle=orthogonalEdgeStyle;rounded=0;orthogonalLoop=1;jettySize=auto;html=1;" parent="2" source="wyG0Mp5H0PBrzHiHYPUD-43" target="wyG0Mp5H0PBrzHiHYPUD-42" edge="1">
          <mxGeometry relative="1" as="geometry">
            <Array as="points">
              <mxPoint x="125" y="200" />
              <mxPoint x="125" y="200" />
            </Array>
          </mxGeometry>
        </mxCell>
        <mxCell id="wyG0Mp5H0PBrzHiHYPUD-75" style="edgeStyle=orthogonalEdgeStyle;rounded=0;orthogonalLoop=1;jettySize=auto;html=1;exitX=0.5;exitY=1;exitDx=0;exitDy=0;" parent="2" source="wyG0Mp5H0PBrzHiHYPUD-43" target="wyG0Mp5H0PBrzHiHYPUD-72" edge="1">
          <mxGeometry relative="1" as="geometry" />
        </mxCell>
        <mxCell id="wyG0Mp5H0PBrzHiHYPUD-43" value="Homepage" style="ellipse;whiteSpace=wrap;html=1;fillColor=#d80073;fontColor=#ffffff;strokeColor=#A50040;movable=1;resizable=1;rotatable=1;deletable=1;editable=1;locked=0;connectable=1;" parent="2" vertex="1">
          <mxGeometry x="40" y="200" width="170" height="80" as="geometry" />
        </mxCell>
        <mxCell id="wyG0Mp5H0PBrzHiHYPUD-60" value="Create Post" style="ellipse;whiteSpace=wrap;html=1;fillColor=#d80073;fontColor=#ffffff;strokeColor=#A50040;movable=1;resizable=1;rotatable=1;deletable=1;editable=1;locked=0;connectable=1;" parent="2" vertex="1">
          <mxGeometry x="300" y="219" width="170" height="80" as="geometry" />
        </mxCell>
        <mxCell id="wyG0Mp5H0PBrzHiHYPUD-64" style="edgeStyle=orthogonalEdgeStyle;rounded=0;orthogonalLoop=1;jettySize=auto;html=1;exitX=0.5;exitY=1;exitDx=0;exitDy=0;entryX=0.5;entryY=0;entryDx=0;entryDy=0;" parent="2" source="wyG0Mp5H0PBrzHiHYPUD-62" target="wyG0Mp5H0PBrzHiHYPUD-60" edge="1">
          <mxGeometry relative="1" as="geometry" />
        </mxCell>
        <mxCell id="wyG0Mp5H0PBrzHiHYPUD-66" style="edgeStyle=orthogonalEdgeStyle;rounded=0;orthogonalLoop=1;jettySize=auto;html=1;exitX=1;exitY=0.5;exitDx=0;exitDy=0;entryX=0;entryY=0.5;entryDx=0;entryDy=0;" parent="2" source="wyG0Mp5H0PBrzHiHYPUD-62" target="wyG0Mp5H0PBrzHiHYPUD-65" edge="1">
          <mxGeometry relative="1" as="geometry" />
        </mxCell>
        <mxCell id="wyG0Mp5H0PBrzHiHYPUD-74" style="edgeStyle=orthogonalEdgeStyle;rounded=0;orthogonalLoop=1;jettySize=auto;html=1;exitX=1;exitY=0.5;exitDx=0;exitDy=0;entryX=0;entryY=0.5;entryDx=0;entryDy=0;" parent="2" source="wyG0Mp5H0PBrzHiHYPUD-62" target="wyG0Mp5H0PBrzHiHYPUD-69" edge="1">
          <mxGeometry relative="1" as="geometry" />
        </mxCell>
        <mxCell id="wyG0Mp5H0PBrzHiHYPUD-62" value="Feed" style="ellipse;whiteSpace=wrap;html=1;fillColor=#d80073;fontColor=#ffffff;strokeColor=#A50040;movable=1;resizable=1;rotatable=1;deletable=1;editable=1;locked=0;connectable=1;" parent="2" vertex="1">
          <mxGeometry x="300" y="80" width="170" height="80" as="geometry" />
        </mxCell>
        <mxCell id="wyG0Mp5H0PBrzHiHYPUD-65" value="Comment post" style="ellipse;whiteSpace=wrap;html=1;fillColor=#d80073;fontColor=#ffffff;strokeColor=#A50040;movable=1;resizable=1;rotatable=1;deletable=1;editable=1;locked=0;connectable=1;" parent="2" vertex="1">
          <mxGeometry x="660" y="200" width="170" height="80" as="geometry" />
        </mxCell>
        <mxCell id="wyG0Mp5H0PBrzHiHYPUD-69" value="Browse Section" style="ellipse;whiteSpace=wrap;html=1;fillColor=#d80073;fontColor=#ffffff;strokeColor=#A50040;movable=1;resizable=1;rotatable=1;deletable=1;editable=1;locked=0;connectable=1;" parent="2" vertex="1">
          <mxGeometry x="660" y="80" width="170" height="80" as="geometry" />
        </mxCell>
        <mxCell id="wyG0Mp5H0PBrzHiHYPUD-71" style="edgeStyle=orthogonalEdgeStyle;rounded=0;orthogonalLoop=1;jettySize=auto;html=1;exitX=0.5;exitY=1;exitDx=0;exitDy=0;" parent="2" source="wyG0Mp5H0PBrzHiHYPUD-43" target="wyG0Mp5H0PBrzHiHYPUD-43" edge="1">
          <mxGeometry relative="1" as="geometry" />
        </mxCell>
        <mxCell id="cQX6xUzbK8IMXvxnRTmu-13" style="edgeStyle=orthogonalEdgeStyle;rounded=0;orthogonalLoop=1;jettySize=auto;html=1;exitX=1;exitY=0.5;exitDx=0;exitDy=0;entryX=0;entryY=0.5;entryDx=0;entryDy=0;" edge="1" parent="2" source="wyG0Mp5H0PBrzHiHYPUD-72" target="wyG0Mp5H0PBrzHiHYPUD-76">
          <mxGeometry relative="1" as="geometry" />
        </mxCell>
        <mxCell id="cQX6xUzbK8IMXvxnRTmu-14" style="edgeStyle=orthogonalEdgeStyle;rounded=0;orthogonalLoop=1;jettySize=auto;html=1;exitX=0.5;exitY=0;exitDx=0;exitDy=0;" edge="1" parent="2" source="wyG0Mp5H0PBrzHiHYPUD-72">
          <mxGeometry relative="1" as="geometry">
            <mxPoint x="124.66666666666674" y="280" as="targetPoint" />
          </mxGeometry>
        </mxCell>
        <mxCell id="wyG0Mp5H0PBrzHiHYPUD-72" value="FAQ" style="ellipse;whiteSpace=wrap;html=1;fillColor=#d80073;fontColor=#ffffff;strokeColor=#A50040;movable=1;resizable=1;rotatable=1;deletable=1;editable=1;locked=0;connectable=1;" parent="2" vertex="1">
          <mxGeometry x="40" y="349" width="170" height="80" as="geometry" />
        </mxCell>
        <mxCell id="cQX6xUzbK8IMXvxnRTmu-15" style="edgeStyle=orthogonalEdgeStyle;rounded=0;orthogonalLoop=1;jettySize=auto;html=1;exitX=0;exitY=0.5;exitDx=0;exitDy=0;entryX=1;entryY=0.5;entryDx=0;entryDy=0;" edge="1" parent="2" source="wyG0Mp5H0PBrzHiHYPUD-76" target="wyG0Mp5H0PBrzHiHYPUD-72">
          <mxGeometry relative="1" as="geometry" />
        </mxCell>
        <mxCell id="cQX6xUzbK8IMXvxnRTmu-16" style="edgeStyle=orthogonalEdgeStyle;rounded=0;orthogonalLoop=1;jettySize=auto;html=1;exitX=0;exitY=0;exitDx=0;exitDy=0;entryX=1;entryY=0.5;entryDx=0;entryDy=0;" edge="1" parent="2" source="wyG0Mp5H0PBrzHiHYPUD-76" target="wyG0Mp5H0PBrzHiHYPUD-43">
          <mxGeometry relative="1" as="geometry">
            <Array as="points">
              <mxPoint x="330" y="360" />
              <mxPoint x="330" y="300" />
              <mxPoint x="210" y="300" />
            </Array>
          </mxGeometry>
        </mxCell>
        <mxCell id="cQX6xUzbK8IMXvxnRTmu-20" style="edgeStyle=orthogonalEdgeStyle;rounded=0;orthogonalLoop=1;jettySize=auto;html=1;exitX=1;exitY=0.5;exitDx=0;exitDy=0;entryX=0;entryY=0.5;entryDx=0;entryDy=0;" edge="1" parent="2" source="wyG0Mp5H0PBrzHiHYPUD-76" target="cQX6xUzbK8IMXvxnRTmu-17">
          <mxGeometry relative="1" as="geometry" />
        </mxCell>
        <mxCell id="wyG0Mp5H0PBrzHiHYPUD-76" value="Request Help" style="ellipse;whiteSpace=wrap;html=1;fillColor=#d80073;fontColor=#ffffff;strokeColor=#A50040;movable=1;resizable=1;rotatable=1;deletable=1;editable=1;locked=0;connectable=1;" parent="2" vertex="1">
          <mxGeometry x="310" y="349" width="170" height="80" as="geometry" />
        </mxCell>
        <mxCell id="cQX6xUzbK8IMXvxnRTmu-12" style="edgeStyle=orthogonalEdgeStyle;rounded=0;orthogonalLoop=1;jettySize=auto;html=1;exitX=1;exitY=0.5;exitDx=0;exitDy=0;entryX=0.086;entryY=0.192;entryDx=0;entryDy=0;entryPerimeter=0;" edge="1" parent="2" source="wyG0Mp5H0PBrzHiHYPUD-43" target="wyG0Mp5H0PBrzHiHYPUD-76">
          <mxGeometry relative="1" as="geometry">
            <Array as="points">
              <mxPoint x="210" y="300" />
              <mxPoint x="330" y="300" />
              <mxPoint x="330" y="364" />
            </Array>
          </mxGeometry>
        </mxCell>
        <mxCell id="cQX6xUzbK8IMXvxnRTmu-17" value="Interact with users in need" style="ellipse;whiteSpace=wrap;html=1;fillColor=#dae8fc;strokeColor=#6c8ebf;movable=1;resizable=1;rotatable=1;deletable=1;editable=1;locked=0;connectable=1;" vertex="1" parent="2">
          <mxGeometry x="655" y="349" width="180" height="80" as="geometry" />
        </mxCell>
        <mxCell id="cQX6xUzbK8IMXvxnRTmu-21" value="Administer sections" style="ellipse;whiteSpace=wrap;html=1;fillColor=#dae8fc;strokeColor=#6c8ebf;movable=1;resizable=1;rotatable=1;deletable=1;editable=1;locked=0;connectable=1;" vertex="1" parent="2">
          <mxGeometry x="655" y="540" width="180" height="80" as="geometry" />
        </mxCell>
        <mxCell id="wyG0Mp5H0PBrzHiHYPUD-55" style="edgeStyle=orthogonalEdgeStyle;rounded=0;orthogonalLoop=1;jettySize=auto;html=1;exitX=0.5;exitY=0.5;exitDx=0;exitDy=0;exitPerimeter=0;entryX=0;entryY=0.5;entryDx=0;entryDy=0;" parent="1" source="wyG0Mp5H0PBrzHiHYPUD-41" target="wyG0Mp5H0PBrzHiHYPUD-43" edge="1">
          <mxGeometry relative="1" as="geometry" />
        </mxCell>
        <mxCell id="wyG0Mp5H0PBrzHiHYPUD-41" value="User 1" style="shape=umlActor;verticalLabelPosition=bottom;verticalAlign=top;html=1;outlineConnect=0;" parent="1" vertex="1">
          <mxGeometry x="210" y="260" width="50" height="60" as="geometry" />
        </mxCell>
        <mxCell id="cQX6xUzbK8IMXvxnRTmu-19" style="edgeStyle=orthogonalEdgeStyle;rounded=0;orthogonalLoop=1;jettySize=auto;html=1;exitX=0.5;exitY=0.5;exitDx=0;exitDy=0;exitPerimeter=0;entryX=1;entryY=0.5;entryDx=0;entryDy=0;" edge="1" parent="1" source="cQX6xUzbK8IMXvxnRTmu-18" target="cQX6xUzbK8IMXvxnRTmu-17">
          <mxGeometry relative="1" as="geometry" />
        </mxCell>
        <mxCell id="cQX6xUzbK8IMXvxnRTmu-22" style="edgeStyle=orthogonalEdgeStyle;rounded=0;orthogonalLoop=1;jettySize=auto;html=1;exitX=0.5;exitY=0.5;exitDx=0;exitDy=0;exitPerimeter=0;entryX=1;entryY=0.5;entryDx=0;entryDy=0;" edge="1" parent="1" source="cQX6xUzbK8IMXvxnRTmu-18" target="cQX6xUzbK8IMXvxnRTmu-21">
          <mxGeometry relative="1" as="geometry" />
        </mxCell>
        <mxCell id="cQX6xUzbK8IMXvxnRTmu-18" value="Administratior" style="shape=umlActor;verticalLabelPosition=bottom;verticalAlign=top;html=1;outlineConnect=0;" vertex="1" parent="1">
          <mxGeometry x="1300" y="409" width="50" height="60" as="geometry" />
        </mxCell>
      </root>
    </mxGraphModel>
  </diagram>
</mxfile>
